<svg width="24" height="24" viewBox="0 0 24 24" fill="none" xmlns="http://www.w3.org/2000/svg">
<path d="M3.33569 4.34869L20.671 21.684" stroke="black" stroke-linecap="round" stroke-linejoin="round"></path>
<path d="M5.36919 2.32086L9.26481 6.21265C9.80198 6.75295 10.1035 7.48387 10.1035 8.24576C10.1035 9.00764 9.80198 9.73857 9.26481 10.2789C8.72456 10.8157 7.99384 11.1171 7.23219 11.1171C6.47054 11.1171 5.73982 10.8157 5.19956 10.2789L1.30298 6.38228" stroke="black" stroke-linecap="round" stroke-linejoin="round"></path>
<path d="M15.7855 10.2788L4.37939 21.6839" stroke="black" stroke-linecap="round" stroke-linejoin="round"></path>
<path d="M15.7848 5.53503L16.9707 4.34916C16.9707 4.34916 19.3425 1.9774 21.7142 4.34916C21.7142 4.34916 24.086 6.72091 21.7142 9.09266L20.5283 10.2785C20.5283 10.2785 18.1566 12.6503 15.7848 10.2785C15.7848 10.2785 13.4131 7.90679 15.7848 5.53503Z" stroke="black" stroke-linecap="round" stroke-linejoin="round"></path>
</svg>
