<svg width="24" height="24" viewBox="0 0 24 24" fill="none" xmlns="http://www.w3.org/2000/svg">
<path d="M1.21875 17.9896C1.21875 18.4301 1.30551 18.8662 1.47407 19.2732C1.64263 19.6801 1.8897 20.0499 2.20116 20.3614C2.51263 20.6728 2.88239 20.9199 3.28933 21.0884C3.69628 21.257 4.13244 21.3438 4.57292 21.3438C5.01339 21.3438 5.44955 21.257 5.8565 21.0884C6.26345 20.9199 6.63321 20.6728 6.94467 20.3614C7.25613 20.0499 7.5032 19.6801 7.67176 19.2732C7.84033 18.8662 7.92708 18.4301 7.92708 17.9896C7.92708 17.5491 7.84033 17.113 7.67176 16.706C7.5032 16.2991 7.25613 15.9293 6.94467 15.6178C6.63321 15.3064 6.26345 15.0593 5.8565 14.8908C5.44955 14.7222 5.01339 14.6354 4.57292 14.6354C4.13244 14.6354 3.69628 14.7222 3.28933 14.8908C2.88239 15.0593 2.51263 15.3064 2.20116 15.6178C1.8897 15.9293 1.64263 16.2991 1.47407 16.706C1.30551 17.113 1.21875 17.5491 1.21875 17.9896Z" stroke="black" stroke-linecap="round" stroke-linejoin="round"></path>
<path d="M16.073 17.9896C16.073 18.4301 16.1598 18.8662 16.3283 19.2732C16.4969 19.6801 16.7439 20.0499 17.0554 20.3614C17.3669 20.6728 17.7366 20.9199 18.1436 21.0884C18.5505 21.257 18.9867 21.3438 19.4272 21.3438C19.8676 21.3438 20.3038 21.257 20.7107 21.0884C21.1177 20.9199 21.4875 20.6728 21.7989 20.3614C22.1104 20.0499 22.3574 19.6801 22.526 19.2732C22.6946 18.8662 22.7813 18.4301 22.7813 17.9896C22.7813 17.5491 22.6946 17.113 22.526 16.706C22.3574 16.2991 22.1104 15.9293 21.7989 15.6178C21.4875 15.3064 21.1177 15.0593 20.7107 14.8908C20.3038 14.7222 19.8676 14.6354 19.4272 14.6354C18.9867 14.6354 18.5505 14.7222 18.1436 14.8908C17.7366 15.0593 17.3669 15.3064 17.0554 15.6178C16.7439 15.9293 16.4969 16.2991 16.3283 16.706C16.1598 17.113 16.073 17.5491 16.073 17.9896Z" stroke="black" stroke-linecap="round" stroke-linejoin="round"></path>
<path d="M4.57104 17.9896L6.159 12.4935H13.197C14.0449 12.4935 14.8754 12.2527 15.5917 11.799C16.308 11.3453 16.8807 10.6975 17.2431 9.93094L17.9082 8.52411" stroke="black" stroke-linecap="round" stroke-linejoin="round"></path>
<path d="M13.7002 2.65625H16.1507C16.3787 2.65612 16.5993 2.7373 16.7728 2.88519C16.9463 3.03309 17.0615 3.23802 17.0975 3.46317L19.4262 17.9896" stroke="black" stroke-linecap="round" stroke-linejoin="round"></path>
<path d="M17.5833 6.49243H22.7813L22.4295 9.90122C22.4058 10.1376 22.2951 10.3567 22.1189 10.5161C21.9427 10.6755 21.7136 10.7637 21.476 10.7637H18.2675" stroke="black" stroke-linecap="round" stroke-linejoin="round"></path>
<path d="M6.15886 12.4935L4.98682 6.86621C4.88203 6.39275 4.96738 5.89708 5.22447 5.48592C5.48156 5.07477 5.88984 4.78102 6.36139 4.66794C6.83294 4.55486 7.33003 4.63149 7.74564 4.88133C8.16124 5.13116 8.46211 5.53422 8.58345 6.00371L9.45265 9.20167H11.722C11.9415 9.19637 12.1598 9.23503 12.3641 9.31536C12.5685 9.3957 12.7547 9.51609 12.9118 9.66945C13.0689 9.82282 13.1937 10.0061 13.279 10.2084C13.3642 10.4107 13.4081 10.6281 13.4081 10.8476C13.4081 11.0672 13.3642 11.2845 13.279 11.4868C13.1937 11.6892 13.0689 11.8724 12.9118 12.0258C12.7547 12.1791 12.5685 12.2995 12.3641 12.3798C12.1598 12.4602 11.9415 12.4988 11.722 12.4935H6.15886Z" stroke="black" stroke-linecap="round" stroke-linejoin="round"></path>
</svg>
