<svg width="24" height="24" viewBox="0 0 24 24" fill="none" xmlns="http://www.w3.org/2000/svg">
<g clip-path="url(#clip0_873_18133)">
<path d="M13.7673 8.11096L8.1123 13.768" stroke="black" stroke-linecap="round" stroke-linejoin="round"></path>
<path d="M15.8894 10.2321L10.2334 15.8891" stroke="black" stroke-linecap="round" stroke-linejoin="round"></path>
<path d="M10.2322 20.132C10.3779 20.2697 10.4945 20.4353 10.5751 20.6189C10.6558 20.8024 10.6988 21.0003 10.7016 21.2008C10.7044 21.4012 10.667 21.6002 10.5917 21.786C10.5163 21.9718 10.4044 22.1406 10.2627 22.2824C10.1209 22.4242 9.95219 22.5361 9.76644 22.6116C9.5807 22.6871 9.38171 22.7246 9.18124 22.7218C8.98076 22.7191 8.78287 22.6762 8.59926 22.5957C8.41565 22.5151 8.25005 22.3986 8.11224 22.253L1.74724 15.889C1.474 15.6061 1.32281 15.2272 1.32623 14.8339C1.32965 14.4406 1.4874 14.0644 1.76551 13.7863C2.04362 13.5082 2.41984 13.3504 2.81314 13.347C3.20643 13.3436 3.58534 13.4948 3.86824 13.768" stroke="black" stroke-linecap="round" stroke-linejoin="round"></path>
<path d="M2.45413 12.354C2.17273 12.0726 2.01465 11.6909 2.01465 11.293C2.01465 10.895 2.17273 10.5134 2.45413 10.232C2.73552 9.95057 3.11718 9.79248 3.51513 9.79248C3.91308 9.79248 4.29473 9.95057 4.57613 10.232L13.7681 19.425C14.0495 19.7064 14.2076 20.088 14.2076 20.486C14.2076 20.8839 14.0495 21.2656 13.7681 21.547C13.4867 21.8284 13.1051 21.9864 12.7071 21.9864C12.3092 21.9864 11.9275 21.8284 11.6461 21.547L2.45413 12.354Z" stroke="black" stroke-linecap="round" stroke-linejoin="round"></path>
<path d="M10.2324 4.57601C9.95105 4.29461 9.79297 3.91296 9.79297 3.51501C9.79297 3.11705 9.95105 2.7354 10.2324 2.45401C10.5138 2.17261 10.8955 2.01453 11.2934 2.01453C11.6914 2.01453 12.0731 2.17261 12.3544 2.45401L21.5464 11.647C21.6897 11.7854 21.804 11.9509 21.8826 12.1339C21.9612 12.3169 22.0026 12.5137 22.0043 12.7129C22.0061 12.9121 21.9681 13.1096 21.8927 13.2939C21.8173 13.4783 21.7059 13.6458 21.565 13.7866C21.4242 13.9274 21.2567 14.0388 21.0724 14.1142C20.888 14.1897 20.6905 14.2276 20.4913 14.2259C20.2922 14.2242 20.0953 14.1828 19.9123 14.1042C19.7293 14.0255 19.5638 13.9113 19.4254 13.768L10.2324 4.57601Z" stroke="black" stroke-linecap="round" stroke-linejoin="round"></path>
<path d="M6.7003 20.839C6.98169 21.1204 7.13978 21.5021 7.13978 21.9C7.13978 22.298 6.98169 22.6796 6.7003 22.961C6.56096 23.1003 6.39555 23.2109 6.21351 23.2863C6.03146 23.3617 5.83634 23.4005 5.6393 23.4005C5.24135 23.4005 4.85969 23.2424 4.5783 22.961L1.0403 19.425C0.758505 19.1438 0.599985 18.7621 0.59961 18.3639C0.599424 18.1668 0.63807 17.9715 0.71334 17.7893C0.78861 17.6071 0.899031 17.4415 1.0383 17.302C1.17756 17.1625 1.34295 17.0518 1.52501 16.9761C1.70707 16.9005 1.90224 16.8615 2.09938 16.8613C2.49752 16.861 2.87951 17.0188 3.1613 17.3" stroke="black" stroke-linecap="round" stroke-linejoin="round"></path>
<path d="M13.7692 3.868C13.6299 3.72867 13.5195 3.56327 13.4441 3.38125C13.3688 3.19923 13.33 3.00415 13.3301 2.80715C13.3301 2.61015 13.369 2.41509 13.4444 2.2331C13.5198 2.05111 13.6304 1.88577 13.7697 1.7465C13.909 1.60723 14.0744 1.49677 14.2565 1.42143C14.4385 1.34608 14.6336 1.30733 14.8306 1.30737C15.0276 1.30742 15.2226 1.34627 15.4046 1.4217C15.5866 1.49713 15.7519 1.60767 15.8912 1.747L22.2532 8.111C22.3925 8.25027 22.5031 8.41561 22.5785 8.5976C22.6539 8.77959 22.6928 8.97465 22.6928 9.17165C22.6929 9.36865 22.6541 9.56373 22.5788 9.74575C22.5034 9.92777 22.393 10.0932 22.2537 10.2325C22.1144 10.3718 21.9491 10.4824 21.7671 10.5578C21.5851 10.6332 21.3901 10.6721 21.1931 10.6721C20.9961 10.6722 20.801 10.6334 20.619 10.5581C20.4369 10.4827 20.2715 10.3723 20.1322 10.233" stroke="black" stroke-linecap="round" stroke-linejoin="round"></path>
<path d="M17.305 3.16102C17.0366 2.87731 16.8893 2.50007 16.8947 2.1095C16.9 1.71894 17.0575 1.34586 17.3336 1.06959C17.6098 0.793333 17.9828 0.635678 18.3733 0.630155C18.7639 0.624632 19.1412 0.771675 19.425 1.04002L22.961 4.57602C23.2427 4.85741 23.401 5.23917 23.4012 5.63731C23.4014 6.03545 23.2434 6.41736 22.962 6.69902C22.6806 6.98068 22.2989 7.13902 21.9007 7.13921C21.5026 7.13939 21.1207 6.98141 20.839 6.70002" stroke="black" stroke-linecap="round" stroke-linejoin="round"></path>
</g>
<defs>
<clipPath id="clip0_873_18133">
<rect width="24" height="24" fill="white"></rect>
</clipPath>
</defs>
</svg>
