<svg width="24" height="24" viewBox="0 0 24 24" fill="none" xmlns="http://www.w3.org/2000/svg">
<g clip-path="url(#clip0_239_1573)">
<path d="M19.9062 4.09375V22.7812" stroke="black" stroke-linecap="round" stroke-linejoin="round"></path>
<path d="M4.09375 4.09375H19.9062" stroke="black" stroke-linecap="round" stroke-linejoin="round"></path>
<path d="M4.09375 22.7812V4.09375" stroke="black" stroke-linecap="round" stroke-linejoin="round"></path>
<path d="M19.9062 22.7812H4.09375" stroke="black" stroke-linecap="round" stroke-linejoin="round"></path>
<path d="M19.9062 4.09375H4.09375L5.53125 1.21875H18.4688L19.9062 4.09375Z" stroke="black" stroke-linecap="round" stroke-linejoin="round"></path>
<path d="M1.21875 22.7812H22.7812" stroke="black" stroke-linecap="round" stroke-linejoin="round"></path>
<path d="M14.1562 20.625C14.1562 20.0532 13.929 19.5047 13.5247 19.1003C13.1203 18.696 12.5718 18.4688 12 18.4688C11.4282 18.4688 10.8797 18.696 10.4753 19.1003C10.0709 19.5047 9.84375 20.0532 9.84375 20.625V22.7812H14.1562V20.625Z" stroke="black" stroke-linecap="round" stroke-linejoin="round"></path>
<path d="M7.6875 7.32812C7.48902 7.32812 7.32812 7.16723 7.32812 6.96875C7.32812 6.77027 7.48902 6.60938 7.6875 6.60938" stroke="black"></path>
<path d="M7.6875 7.32812C7.88598 7.32812 8.04688 7.16723 8.04688 6.96875C8.04688 6.77027 7.88598 6.60938 7.6875 6.60938" stroke="black"></path>
<path d="M12 7.32812C11.8015 7.32812 11.6406 7.16723 11.6406 6.96875C11.6406 6.77027 11.8015 6.60938 12 6.60938" stroke="black"></path>
<path d="M12 7.32812C12.1985 7.32812 12.3594 7.16723 12.3594 6.96875C12.3594 6.77027 12.1985 6.60938 12 6.60938" stroke="black"></path>
<path d="M16.3125 7.32812C16.114 7.32812 15.9531 7.16723 15.9531 6.96875C15.9531 6.77027 16.114 6.60938 16.3125 6.60938" stroke="black"></path>
<path d="M16.3125 7.32812C16.511 7.32812 16.6719 7.16723 16.6719 6.96875C16.6719 6.77027 16.511 6.60938 16.3125 6.60938" stroke="black"></path>
<path d="M7.6875 11.6406C7.48902 11.6406 7.32812 11.4797 7.32812 11.2812C7.32812 11.0828 7.48902 10.9219 7.6875 10.9219" stroke="black"></path>
<path d="M7.6875 11.6406C7.88598 11.6406 8.04688 11.4797 8.04688 11.2812C8.04688 11.0828 7.88598 10.9219 7.6875 10.9219" stroke="black"></path>
<path d="M12 11.6406C11.8015 11.6406 11.6406 11.4797 11.6406 11.2812C11.6406 11.0828 11.8015 10.9219 12 10.9219" stroke="black"></path>
<path d="M12 11.6406C12.1985 11.6406 12.3594 11.4797 12.3594 11.2812C12.3594 11.0828 12.1985 10.9219 12 10.9219" stroke="black"></path>
<path d="M16.3125 11.6406C16.114 11.6406 15.9531 11.4797 15.9531 11.2812C15.9531 11.0828 16.114 10.9219 16.3125 10.9219" stroke="black"></path>
<path d="M16.3125 11.6406C16.511 11.6406 16.6719 11.4797 16.6719 11.2812C16.6719 11.0828 16.511 10.9219 16.3125 10.9219" stroke="black"></path>
<path d="M7.6875 15.9531C7.48902 15.9531 7.32812 15.7922 7.32812 15.5938C7.32812 15.3953 7.48902 15.2344 7.6875 15.2344" stroke="black"></path>
<path d="M7.6875 15.9531C7.88598 15.9531 8.04688 15.7922 8.04688 15.5938C8.04688 15.3953 7.88598 15.2344 7.6875 15.2344" stroke="black"></path>
<path d="M12 15.9531C11.8015 15.9531 11.6406 15.7922 11.6406 15.5938C11.6406 15.3953 11.8015 15.2344 12 15.2344" stroke="black"></path>
<path d="M12 15.9531C12.1985 15.9531 12.3594 15.7922 12.3594 15.5938C12.3594 15.3953 12.1985 15.2344 12 15.2344" stroke="black"></path>
<path d="M16.3125 15.9531C16.114 15.9531 15.9531 15.7922 15.9531 15.5938C15.9531 15.3953 16.114 15.2344 16.3125 15.2344" stroke="black"></path>
<path d="M16.3125 15.9531C16.511 15.9531 16.6719 15.7922 16.6719 15.5938C16.6719 15.3953 16.511 15.2344 16.3125 15.2344" stroke="black"></path>
</g>
<defs>
<clipPath id="clip0_239_1573">
<rect width="24" height="24" fill="white"></rect>
</clipPath>
</defs>
</svg>
