<svg width="24" height="24" viewBox="0 0 24 24" fill="none" xmlns="http://www.w3.org/2000/svg">
<g clip-path="url(#clip0_239_1785)">
<path d="M17.0312 8.31905V3.00413C17.0312 3.00413 16.5042 1.38454 12.0364 1.21779C11.9454 1.2091 11.8536 1.21853 11.7662 1.24554C11.6789 1.27255 11.5978 1.3166 11.5275 1.37514C11.4573 1.43369 11.3994 1.50557 11.3571 1.58663C11.3149 1.66769 11.2891 1.75633 11.2812 1.84742V8.49155" stroke="black" stroke-linecap="round" stroke-linejoin="round"></path>
<path d="M17.0312 3.00413C17.0312 3.00413 17.5583 1.38454 22.0261 1.21779C22.1171 1.2091 22.2089 1.21853 22.2963 1.24554C22.3836 1.27255 22.4647 1.3166 22.535 1.37514C22.6052 1.43369 22.6631 1.50557 22.7054 1.58663C22.7476 1.66769 22.7734 1.75633 22.7812 1.84742V8.49155C22.7642 8.66776 22.6801 8.83068 22.5463 8.94663C22.4126 9.06257 22.2393 9.12266 22.0625 9.11446C21.0078 9.12886 19.96 9.28684 18.9479 9.58404" stroke="black" stroke-linecap="round" stroke-linejoin="round"></path>
<path d="M5.53125 14.1553V17.0303" stroke="black" stroke-linecap="round" stroke-linejoin="round"></path>
<path d="M4.09375 15.5928H6.96875" stroke="black" stroke-linecap="round" stroke-linejoin="round"></path>
<path d="M13.4375 16.3125C13.5328 16.3125 13.6242 16.3504 13.6916 16.4178C13.759 16.4852 13.7969 16.5766 13.7969 16.6719" stroke="black" stroke-linecap="round" stroke-linejoin="round"></path>
<path d="M13.0781 16.6709C13.0784 16.5758 13.1164 16.4846 13.1837 16.4174C13.2511 16.3502 13.3424 16.3125 13.4375 16.3125" stroke="black" stroke-linecap="round" stroke-linejoin="round"></path>
<path d="M13.4375 17.0303C13.3422 17.0303 13.2508 16.9924 13.1834 16.925C13.116 16.8576 13.0781 16.7662 13.0781 16.6709" stroke="black" stroke-linecap="round" stroke-linejoin="round"></path>
<path d="M13.7969 16.6709C13.7969 16.7662 13.759 16.8576 13.6916 16.925C13.6242 16.9924 13.5328 17.0303 13.4375 17.0303" stroke="black" stroke-linecap="round" stroke-linejoin="round"></path>
<path d="M15.5938 14.1553C15.6891 14.1553 15.7805 14.1931 15.8479 14.2605C15.9153 14.3279 15.9531 14.4193 15.9531 14.5146" stroke="black" stroke-linecap="round" stroke-linejoin="round"></path>
<path d="M15.2344 14.5146C15.2344 14.4193 15.2722 14.3279 15.3396 14.2605C15.407 14.1931 15.4984 14.1553 15.5938 14.1553" stroke="black" stroke-linecap="round" stroke-linejoin="round"></path>
<path d="M15.5938 14.875C15.4984 14.875 15.407 14.8371 15.3396 14.7697C15.2722 14.7023 15.2344 14.6109 15.2344 14.5156" stroke="black" stroke-linecap="round" stroke-linejoin="round"></path>
<path d="M15.9531 14.5146C15.9533 14.5619 15.944 14.6088 15.926 14.6525C15.908 14.6962 15.8816 14.7359 15.8482 14.7694C15.8148 14.8029 15.7752 14.8294 15.7315 14.8475C15.6878 14.8657 15.641 14.875 15.5938 14.875" stroke="black" stroke-linecap="round" stroke-linejoin="round"></path>
<path d="M11.3089 19.1875C11.5244 19.1874 11.7371 19.2358 11.9314 19.329C12.1256 19.4222 12.2964 19.5579 12.4311 19.7261L13.9166 21.5833C14.2943 22.0758 14.8149 22.4396 15.4072 22.625C15.9995 22.8105 16.6346 22.8084 17.2257 22.6193C17.7981 22.4209 18.2945 22.0492 18.646 21.5558C18.9976 21.0624 19.1868 20.4718 19.1874 19.866V16.0719C19.1874 14.8011 18.6826 13.5823 17.7839 12.6837C16.8853 11.7851 15.6666 11.2803 14.3957 11.2803H6.01031C5.38106 11.2803 4.75797 11.4042 4.17662 11.645C3.59526 11.8858 3.06703 12.2388 2.62209 12.6837C2.17714 13.1287 1.82419 13.6569 1.58338 14.2382C1.34258 14.8196 1.21864 15.4427 1.21864 16.0719V19.7404C1.20603 20.3605 1.38509 20.9694 1.73138 21.484C2.07767 21.9985 2.57431 22.3936 3.15352 22.6154C3.72488 22.8176 4.34501 22.8369 4.92785 22.6707C5.51069 22.5045 6.02734 22.1609 6.4061 21.6878L7.97489 19.7261C8.10962 19.5579 8.28043 19.4222 8.47468 19.329C8.66892 19.2358 8.88164 19.1874 9.0971 19.1875H11.3089Z" stroke="black" stroke-linecap="round" stroke-linejoin="round"></path>
</g>
<defs>
<clipPath id="clip0_239_1785">
<rect width="24" height="24" fill="white"></rect>
</clipPath>
</defs>
</svg>
